<svg width="112" height="112" viewBox="0 0 112 112" fill="none" xmlns="http://www.w3.org/2000/svg">
<rect x="0.5" y="0.5" width="111" height="111" rx="7.5" fill="white"/>
<path d="M77.2451 57.7388V28.3965C77.2451 26.3524 75.6867 24.6953 73.7672 24.6953H26.2806C24.3601 24.6953 22.8027 26.3535 22.8027 28.3965V57.7388" stroke="#000066" stroke-width="2.96" stroke-miterlimit="10" stroke-linecap="round" stroke-linejoin="round"/>
<path d="M81.348 68.1733H18.7046C17.9798 68.1733 17.4943 67.537 17.7884 66.9713L20.514 61.7256C20.6745 61.4164 21.0344 61.2168 21.4301 61.2168H78.6224C79.0192 61.2168 79.3781 61.4164 79.5386 61.7256L82.2642 66.9713C82.5583 67.537 82.0728 68.1733 81.348 68.1733Z" stroke="#000066" stroke-width="2.96" stroke-miterlimit="10" stroke-linecap="round" stroke-linejoin="round"/>
<path d="M22.8027 71.6545V83.5476C22.8027 84.6623 23.6741 85.5654 24.7499 85.5654H76.664C77.7388 85.5654 78.6101 84.6623 78.6101 83.5476V80.7696H80.4254C80.7342 80.7696 80.9838 80.5102 80.9838 80.1905V79.4251H82.0228C82.2028 79.4251 82.349 79.2737 82.349 79.0863C82.349 78.4024 82.349 76.6323 82.349 75.9484C82.349 75.761 82.2028 75.6096 82.0228 75.6096H80.9838V74.8442C80.9838 74.5245 80.7342 74.2651 80.4254 74.2651H78.6101V71.6523" stroke="#000066" stroke-width="2.96" stroke-miterlimit="10" stroke-linecap="round" stroke-linejoin="round"/>
<path d="M35.8438 37.5227V35.4775" stroke="#CB0101" stroke-width="2.96" stroke-miterlimit="10" stroke-linecap="round" stroke-linejoin="round"/>
<path d="M38.0922 38.5522C38.0922 38.5522 37.2425 37.5234 35.8459 37.5234C33.5109 37.5234 32.3999 40.2932 35.8459 41.3002C39.744 42.439 38.3888 45.4517 35.8459 45.4517C34.3908 45.4517 33.2334 44.4011 33.2334 44.4011" stroke="#CB0101" stroke-width="2.96" stroke-miterlimit="10" stroke-linecap="round" stroke-linejoin="round"/>
<path d="M35.8438 45.4512V47.6427" stroke="#CB0101" stroke-width="2.96" stroke-miterlimit="10" stroke-linecap="round" stroke-linejoin="round"/>
<path d="M50.6797 37.5227V35.4775" stroke="#CB0101" stroke-width="2.96" stroke-miterlimit="10" stroke-linecap="round" stroke-linejoin="round"/>
<path d="M52.9291 38.5522C52.9291 38.5522 52.0795 37.5234 50.6829 37.5234C48.3478 37.5234 47.2368 40.2932 50.6829 41.3002C54.581 42.439 53.2258 45.4517 50.6829 45.4517C49.2278 45.4517 48.0693 44.4011 48.0693 44.4011" stroke="#CB0101" stroke-width="2.96" stroke-miterlimit="10" stroke-linecap="round" stroke-linejoin="round"/>
<path d="M50.6797 45.4512V47.6427" stroke="#CB0101" stroke-width="2.96" stroke-miterlimit="10" stroke-linecap="round" stroke-linejoin="round"/>
<path d="M65.167 37.5227V35.4775" stroke="#CB0101" stroke-width="2.96" stroke-miterlimit="10" stroke-linecap="round" stroke-linejoin="round"/>
<path d="M67.4183 38.5522C67.4183 38.5522 66.5687 37.5234 65.1721 37.5234C62.8371 37.5234 61.7261 40.2932 65.1721 41.3002C69.0702 42.439 67.715 45.4517 65.1721 45.4517C63.717 45.4517 62.5596 44.4011 62.5596 44.4011" stroke="#CB0101" stroke-width="2.96" stroke-miterlimit="10" stroke-linecap="round" stroke-linejoin="round"/>
<path d="M65.167 45.4512V47.6427" stroke="#CB0101" stroke-width="2.96" stroke-miterlimit="10" stroke-linecap="round" stroke-linejoin="round"/>
<path d="M31.3125 78.6084H68.7416" stroke="#000066" stroke-width="2.96" stroke-miterlimit="10" stroke-linecap="round" stroke-linejoin="round"/>
<path d="M87.4555 54.2607V74.7021C87.4555 76.8593 86.1044 78.6086 84.4377 78.6086H82.3516" stroke="#000066" stroke-width="2.96" stroke-miterlimit="10" stroke-linecap="round" stroke-linejoin="round"/>
<path d="M88.306 54.26C90.6551 54.26 92.5593 51.9241 92.5593 49.0426C92.5593 46.1611 90.6551 43.8252 88.306 43.8252C85.957 43.8252 84.0527 46.1611 84.0527 49.0426C84.0527 51.9241 85.957 54.26 88.306 54.26Z" stroke="#000066" stroke-width="2.96" stroke-miterlimit="10" stroke-linecap="round" stroke-linejoin="round"/>
<rect x="0.5" y="0.5" width="111" height="111" rx="7.5" stroke="white"/>
</svg>
